<svg viewBox="0 0 680 680" xmlns="http://www.w3.org/2000/svg" xmlns:svg="http://www.w3.org/2000/svg">
    <title>WebWrap icon</title>
    <g class="layer">
        <title>Layer 1</title>
        <rect fill="#E8A030" height="600" id="svg_1" rx="80" transform="matrix(1 0 0 1 0 0)" width="600" x="40" y="40"/>
        <rect fill="#b87a20" height="115" id="svg_2" rx="80" width="600" x="40" y="40"/>
        <rect fill="#b87a20" height="45" id="svg_3" width="600" x="40" y="110"/>
        <circle cx="115" cy="95" fill="#ffffff" id="svg_4" opacity="0.5" r="13"/>
        <circle cx="157" cy="95" fill="#ffffff" id="svg_5" opacity="0.5" r="13"/>
        <circle cx="199" cy="95" fill="#ffffff" id="svg_6" opacity="0.5" r="13"/>
        <rect fill="#ffffff" height="48" id="svg_7" opacity="0.2" rx="24" width="330" x="235" y="70"/>
        <g id="svg_8" transform="translate(1 0) translate(0 -1) translate(1 0) translate(1 0) translate(1 0) translate(0 -1) translate(0 10) translate(0 10) translate(10 0) translate(30 140) scale(1.1 1.1)">
            <path d="m66.52,36.37c0,0 -13.66,-0.64 -17.76,10.49c0,0 -3.99,12.11 9.39,18.8a31.44,31.44 0 0 0 27.09,-0.64a16.99,16.99 0 0 0 6.71,-6.4a15.1,15.1 0 0 0 -0.67,-16.33a27.84,27.84 0 0 0 -6.35,-5.72a53.35,53.35 0 0 0 -5.15,-3.18c-2.7,-1.45 -5.93,-2.77 -7.38,-4.18c0,0 -3.92,-3.07 -3.5,-9.69c0,0 -2.89,7.03 2.83,12.28a26.68,26.68 0 0 0 5.98,4.04c0.16,0.08 1.88,1.08 3.27,2c3.53,2.32 8.4,5.4 8.43,11.72a12.41,12.41 0 0 1 -2.58,7.99a16.08,16.08 0 0 1 -7.18,5.72c0,0 -8.71,3.56 -17.27,0.12c0,0 -10.77,-4.25 -9.63,-15.25a9.96,9.96 0 0 1 2.04,-4.81a19.07,19.07 0 0 1 11.73,-6.96" fill="#ffffff" id="svg_9" transform="matrix(1.8959548,0,0,1.8959548,-62.432028,-29.335497)"/>
            <rect fill="#ffffff" height="3.23" id="svg_10" width="16.78" x="77.72" y="58.72"/>
            <path d="m48.93,36.69c0,0 -9.39,5.15 -9.34,15.3a17.2,17.2 0 0 0 10.89,15.86c0,0 -9.21,-6.3 -8.83,-16.65c0,0 -0.01,-7.67 7.28,-14.51" fill="#ffffff" id="svg_11" transform="matrix(1.8959548,0,0,1.8959548,-62.432028,-29.335497)"/>
            <path d="m93.72,36.66c0,0 9.25,5.39 8.94,15.54a17.2,17.2 0 0 1 -11.3,15.57c0,0 9.37,-6.06 9.26,-16.42c0,0 0.21,-7.66 -6.9,-14.69" fill="#ffffff" id="svg_12" transform="matrix(1.8959548,0,0,1.8959548,-62.432028,-29.335497)"/>
            <path d="m70.67,57.62c0,0 -5.86,-0.46 -9.2,-4.31c0,0 -2.23,-2.09 -2.73,-7.21c-0.1,-0.92 -2.65,5.59 2.84,10.52a13.51,13.51 0 0 0 9.08,3.37c0,0 0,-0.24 0.01,-2.37" fill="#ffffff" id="svg_13" transform="matrix(1.8959548,0,0,1.8959548,-62.432028,-29.335497)"/>
        </g>
        <g id="svg_14" transform="translate(-10 0) translate(-10 0) translate(0 -10) translate(0 -10) translate(0 -10) matrix(1.79767 0 0 1.79767 181.745 286.722)">
            <circle cx="90" cy="90" fill="none" id="svg_15" r="90" stroke="#ffffff" stroke-linecap="round" stroke-linejoin="round" stroke-width="13"/>
            <line id="svg_16" stroke="#ffffff" stroke-linecap="round" stroke-width="13" x1="90" x2="90" y1="0" y2="180"/>
            <line id="svg_17" stroke="#ffffff" stroke-linecap="round" stroke-width="13" x1="0" x2="180" y1="90" y2="90"/>
            <ellipse cx="90" cy="90" fill="none" id="svg_18" rx="45" ry="90" stroke="#ffffff" stroke-linecap="round" stroke-linejoin="round" stroke-width="13"/>
            <path d="m0,50q90,22 180,0" fill="none" id="svg_19" stroke="#ffffff" stroke-linecap="round" stroke-linejoin="round" stroke-width="13"/>
            <path d="m0,130q90,-22 180,0" fill="none" id="svg_20" stroke="#ffffff" stroke-linecap="round" stroke-linejoin="round" stroke-width="13"/>
            <path d="m165,178l45,0l0,-50l-52,0" fill="none" id="svg_21" stroke="#ffffff" stroke-linecap="round" stroke-linejoin="round" stroke-width="18"/>
            <polygon fill="#ffffff" id="svg_22" points="122,128 158,106 158,150"/>
        </g>
    </g>
</svg>